<svg xmlns="http://www.w3.org/2000/svg" viewBox="0 0 600 71"><g id="a" fill="#fff"><path d="m292.2 0 .5.1c.5.4.2 1.4.2 1.4s-7.3 31.8 7.1 35.7c7.3 0 0 31.5 0 31.5s-19.7-4.7-19.7-32.6 11-35.7 11-35.7.4-.4.9-.4M289 51q-1 0-1.3.4c-.6.8-.7 5 1.6 7.8s6 3.1 6.6 2.7c.6-.5 1-5.3-1.2-8.1A8 8 0 0 0 289 51"/><path d="M120.2 21.9c2 5.2 15.3 13.7 36.8 19.2a82 82 0 0 1 27.4-10.9c16.8-3.5 40.7-1.7 56.4 4.3 6 2.3 20 8.3 36.4-6.6l-.7 4.2s-3.3 5.4-9 8.9c-14.8 9 20 27.8 23.5 29.7h-4.3s-15-5.3-23.8-11c-3.7-2.4-9-7-15-11.7q-1.2 0-2.3.4c-3 1.3-48.4 6-86.8-2.3a40 40 0 0 0-7.6 7.9l-1.9-1.2c-1-9-14.5-17.7-72.9-18.6l-73.9-.5L0 31.4l74.6-1.3q10.7 0 22 .4c7.3-1 15.9-3.4 21.8-8.6zm-3 5.2c-2 2-5 3.3-7.4 4a121 121 0 0 1 15.6 2.3 55 55 0 0 1-8.1-6.3m89.5 5.4a86 86 0 0 0-43 10.1 200 200 0 0 0 76.7 0 52 52 0 0 0-33.7-10.1"/></g><use x="-600" href="#a" transform="scale(-1 1)"/></svg>