<svg xmlns="http://www.w3.org/2000/svg" viewBox="0 0 100 100"><defs><radialGradient id="face" cx=".5" cy=".5" r=".5" fx=".5" fy=".5" gradientUnits="objectBoundingBox"><stop offset=".4" stop-color="#a7b3af"/><stop offset=".9" stop-color="#ccd3d1"/><stop offset="1" stop-color="#fff"/></radialGradient><radialGradient id="cloak" cx=".5" cy=".25" r=".7" gradientUnits="objectBoundingBox"><stop offset=".3" stop-color="#733c48"/><stop offset=".8" stop-color="#2a111f"/></radialGradient><radialGradient id="spag-rad" cx=".5" cy=".5" r=".5" fx=".5" fy=".5" gradientUnits="objectBoundingBox"><stop offset=".5" stop-color="#915b41" stop-opacity="0"/><stop offset=".8" stop-color="#915b41"/></radialGradient><mask id="head"><path fill="#fff" d="M46.24 5.54c-20.86 25.21-6.25 52.6 6.66 52 12.26-.57 22.27-31.88 2.74-52.57.19.6-1.44 18.08-2.62 24.73-.1 4.17 2.95 7 .72 8.9-.78.67-3.36-1.76-5.4-8.36-3.18-10.22-2.4-15.25-2.1-24.7"/></mask><mask id="plate"><path fill="#fff" d="M9.77 70.49c-14.06 6.98-.36 14.25 6.71 15.8l3.5 3.98c20.59 6.45 52.69 4.18 61.7.38l4.41-4.1c10.52-1.02 15.16-10.67 7.2-12.35z"/></mask><mask id="spag"><path fill="#fff" d="M52.82 26.3c-6.25 2.43-10.8 24.06-13.11 26.31-6.28-.26-8.11 4.8-8.11 4.8-4.4-2.47-15.33 1.13-15.89 11.16C3.7 71.84 14.2 79.84 14.2 79.84c1 2.5 15.16 2.45 15.16 2.45 7.62 2.12 18.07 1.63 18.07 1.63 5.19 4.7 21.94.78 21.94.78 4.86 2.91 11.07-1.35 11.07-1.35 12.82-1.77 11.36-8.8 11.36-8.8l-10.52-5.21c9.07-11.85-1.28-18.36-10.8-11.15-4.6-6.32-4.4-11.85-4.4-11.85Zm26.6 40.24-3.33-2.57c2.52-7.5 4.88-1.3 3.33 2.57m-53.14-3.2a26 26 0 0 1-4.32 3.08c-3.12-.88 2.7-6.46 4.32-3.09"/></mask><linearGradient id="spag-up" gradientTransform="rotate(90)" gradientUnits="objectBoundingBox"><stop offset=".2" stop-color="#915b41" stop-opacity="0"/><stop offset=".8" stop-color="#915b41"/></linearGradient></defs><g mask="url(#plate)"><path fill="#fff" d="M4 76h90v18H4z"/><g fill="#eee0da" stroke="#eee0da" stroke-width="5"><path stroke="none" d="M3.5 72S3.7 83 27 83c21 0 24 3 26 3 1 0 24 1 35-4 10-3 4 2 4 2C120 59 3.5 72 3.5 72"/><path d="M32 91c-1 1-16-2-16-2m44 3c2 1 26-2 26-2"/></g><g fill="#c6a6ae" stroke="#c6a6ae"><path stroke="none" d="M5.3 73s7.7 9 9.7 9c3-1 82-2 82-2s3-45-91.7-7"/><path stroke-width="4" d="M70 91c2 1 14-2 14-2"/><path stroke-width="1.5" d="m67 89-2 5"/><path stroke-width=".8" d="m24 88 2 4"/><path stroke-width="3" d="M20 87c0 1 3 5 3 5"/></g></g><g mask="url(#spag)"><path fill="#d2ae87" d="M10 26h81v60H10Z"/><g fill="#915b41" stroke="#915b41"><path d="M48 76c0 1 27 3 27 3s35-1 7-8c4 5-4 6-4 6-4-7-30-1-30-1zm21-18s-1-8-3-13c-5 6-4 11-4 11z"/><path stroke-width="4" d="m26 64-3 4"/></g><path fill="none" stroke="#b18363" stroke-width="5" d="M11 75c6 13 26 6 26 6 20 9 38 1 38 1l14-1"/><g fill="url(#spag-up)"><path d="M82 69s-1-5-9 1c-25-2 23-17 9-1"/><path d="M43 72s-12 8-33 2c-2.7-15 37-12 33-2"/></g><g fill="url(#spag-rad)"><ellipse cx="53" cy="48" rx="12.5" ry="22"/><ellipse cx="38" cy="53" rx="7.1" ry="5.2"/></g><path fill="#f7ebb6" d="M56.72 57.99c-.13-.43-5.03 1.6-4.95 1.78 0 .12 1.01-.04 2.02-.13 1.52-.14 3.29-.34 2.93-1.65m16.66 1.14c-1.36.69-2.97 2.92-2.59 3.05.35.11 1.18-.75 2.17-1.32 2.05-1.17 1.18-2.12.42-1.73m-39.7 2.92c.9.94 1.55.54 1.27.05-.67-1.13-1.9-2.74-4-2.96-1.48-.16 2.13 2.28 2.74 2.91m-2.8-1.08c-.23.22 1.55.84 1.62 1.5.21 1.2 2.32 1.86 2.14 1.15.1-.64-3.64-2.75-3.75-2.65m25.38 9.17c-.45-.12-3.76-.2-3.91.52s-1.23 1.07-1.84 1.2c-.94.18-1.85.06-2.22.32-.59.41-5.55.2-5.04.76.85.93 4.56-.57 4.78-.15.1.2-2.86 1.43-1.95 1.46 1 .03 3.88-1.03 5.73-1.45 1.26-.29 3.63-.47 4.1-1.1.62-.8.75-1.46.35-1.56m-16.44 5.23c-.79-1.28-3.35.7-5.83 1.53-1.66-.06-5.55.72-6.03 1.36-.5.65 6.5.33 6.73-.74 3.6-.44 5.89-.93 5.13-2.15m10.21 3.07c-.28.42 1.03.15 2.33.02.95-.1 1.91.03 1.83-.28-.07-.27-3.99 0-4.16.26"/></g><g mask="url(#head)"><path fill="#fff" d="M5 5h65v55H5Z"/><ellipse cx="51" cy="50" fill="url(#face)" rx="10" ry="9"/></g><path fill="url(#cloak)" d="m42 56-8 3c4 5 3 10 10 12 8-3 21-3 21-3l5-8-8-4c-1 3-12 10-20 0m28 13 4 1s2-5 1-7c-2-1-5 6-5 6m-41-6c-4-1 0 12 0 12l9-1s-7-11-9-11"/><path d="M21.98 65.67a18 18 0 0 0 3.13-2.82c-2.22.29-3.87 2.58-3.13 2.82m25.5-61.53c-1.26 5.1-1.5 18.61 1 24.65.99-1.93 1.97-3.44 4.42-3 .57-6.98 1.52-13.95 2.13-21.08 0 0 .27-.25.8-.08 6.69 4.22 14.57 22.95 11.04 34.72.25 8 1.62 14.88 4.38 17.52.6-.4 1.19-.9 1.7-1.37-.03-1 .5-1.91 2.2-.94 11.32-2.57 13.72 7.5 7.51 15.09 3.98.24 6.62 1.7 9.96 3.73 4.7.03 6.47 3.9 4.72 7.85-1.75 3.96-6.61 5.17-11.17 6.3a17 17 0 0 1-3.83 4.14c-17.58 5.82-47.59 4.78-62.75-.43a20 20 0 0 1-4.44-4.28C8.78 84.57 3.41 80.9 3.04 77.77c-.34-2.88 3.38-8.5 8.15-8.17.74-.86 2.43-1.85 3.89-1.63.03-6.25 9.08-15.61 16.53-11.5 1.14-3.06 4.32-4.64 7.9-4.96l.62-.85c-9.67-11.74-3.8-38.24 7.35-46.52m-2.67 48.6c6.03 5.56 12.38 4.68 15.84-1.62 7.52-14.3 7.3-28.04-4.74-45.44-.24 8.06-.6 16.76-2.2 24.08 2.17 6.7 2.33 9.15.07 9.88-2.45.79-4.47-4.45-5.17-6.38-3.9-9.71-3.78-14.05-2.6-27.1-9.4 12.49-14.06 34.74-1.2 46.58m-22.89 6.62c-3.25 2.36-7.26 7.56-4.59 10.58a30 30 0 0 1 3.07-1.32c-1.6-1.62-1.07-3.33.88-4.9zm60.4 28.9a187 187 0 0 1-63.47-.35c2.47 4.3 46.13 8.24 62.42 1.5 0 0 .78-.63 1.05-1.16m4.26-7.4c-4.45.85-7.51.83-10.73.54-2.93.63-3.57 1.8-5.44 3.2 3.72.3 7.53-.66 9.08-1.8 1.55-1.16 4.92-.94 7.09-1.93m-56.06 2.39c-3.91.06-16.37.29-17.19-3.2-3.82-2.33-5.02-5.73-3.43-8.5-1.12-.02-6.17 2.65-5.57 6.17 2.57 15.08 91.96 15.59 92.15.45.04-2.93-3.2-3.13-3.2-3.13-.76 5.9-5.25 8-10.29 9.04-1.68.35-2.44.33-3.1 1.1-.85 1-9.35 2.75-10.7.17-2.72 2.05-13.07 2.15-19.23 1.26-2.6-.43-2.92-1.71-2.92-1.71a62 62 0 0 1-16.52-1.65m17.5-.25c.18 2 7.28 2.29 11.06 2.07 5.99-.35 8.42-1.04 9.6-1.86a66 66 0 0 1-31.1-4.3c-3.27.84-7.25 1.33-10.27 1.71 3 1.55 12.8 2.8 20.71 2.38m-31.7-12.37c-.58-.34-1.03-.85-1.03-1.36-6.41 2.47-4.65 6.39-1.4 8.67 1.12.79 1.63.93 1.25 1.8 3.02 1.35 5.77 1.29 10.02 1.14l-.53-.4c-8.09.42-13.81-4.7-8.31-9.85m62.12 7.12c-5.33 2.07-7.45 1.57-18.09.59-4.62-.43-9.22-.1-13.4-2.12q-3.93 1.3-7.93 2.33c6.91 1.34 27.08 5.6 33.48 1.63 9.25-2.11 17.76-1.44 18.01-5.08-4-2.12-10.15-4.41-11.35-7.35-1.83.3-2.26.82-3.9 1.82 16.14 4.93 6.76 6.8 3.18 8.18m-53.93-8.02c-1.81.02-3.66.18-5.44.56-7.45 7.57 1 9.03 6.27 8.83 16.3-.65 20-6.92 42.32-6.28.7-.78 1.42-.26 1.88.23 3-.29 5.77.3 9.75 2.61 1.15-.31 1.66-.81 1.66-.81-3.27-2.81-10.32-4.45-16-5.47-1.56.88-14.42-1.13-26.2 4.78-8.24 4.14-14.61 1.8-19.7 1.52 1.2-4.74 5.46-5.97 5.46-5.97m-2.2 4.23c.99.05-.1-.14 5.22.68a4.6 4.6 0 0 1-.95-2.35s-3.38-.42-4.28 1.67m44.06.36c-11.32.02-17.35 1.46-17.35 1.46 5.45.97 9.84.86 14.7 1.05zm.44 2.92c2.92.27 6.01.44 9.26-.01-1.58-2.67-3.66-2.81-6.72-2.81zm-12.14-8.88c-1.14-2.12-1.06-5.09-.37-6.5-2.07.24-3.57.45-5.94.03-1.55 4.05-4.8 6.35-7.77 6.83.85.95 1.96 1.4 3.24 1.86 3.44-1.4 7.5-2.2 10.84-2.22m-13.42 3.37c-6.57-3.66-2.82-10.23-12-14.25.08 1.16.07 2.3.24 3.45 4.62.93 2.22 4.17 9 11.88zm-5.14 1.79c-5.36-5.78-3.69-9.48-8.16-9.47.2 3.81.57 7.7 3.2 10.6a16 16 0 0 0 4.96-1.13m36.91-4.48c.27-1.63 1.53-4.16 1.53-4.16l-.87-1.04c-.95 1.56-1.97 3.08-2.8 4.7a8 8 0 0 1 2.14.5m1.53-8.53c.2-1 .06-1.75-.39-2.75-4 1.58-4.12 6.95-6.97 10.25 0 0 1.65.02 2.32.36 1.6-2.45 2.11-5.5 5.04-7.86m-9.76 6.68c-1.43-1.38-4.33-3.2-4.6-5.94.06-.28.32-.27.9.23 1.82 1.57 4.29 3.3 5.2 3.44.79-1.4 1.27-2.78 1.84-4.35 0 0-3-2.03-5.96-3.46-1.71 2.05-3.38 4.42-7.12 4.67a18 18 0 0 0 2.57 6.18c1.24.01 6.56.34 7.17-.77m12.98-.67s-1.1-.94-1.5-1.13c-.28.9-.47 2.37-.47 2.37.78-.32 1.97-1.24 1.97-1.24m-31.41-5.5a23 23 0 0 1-4.73-3.8l-.86.58c-1.7.85-3.4 1.61-5.28 1.55a20 20 0 0 1 2.31 3.96c1.09 2.77 2 4.25 2 4.25 3.74-.98 5.87-5.07 6.56-6.54M25.83 67.2c.09-.16.45-2.1.36-2.74a10 10 0 0 1-3.85 2.44c.8-.04 1.2.35 1.1.5.4.15.8-.18 2.39-.2m55.36.12c4.01-7 1.43-11.86-3.62-10.47q.46 1.19.96 2.35c4.04-.4 2.4 5.64 1.55 7.3zm-2.36-5.6-.87-.04s-.25 1.23-.95 2c0 0 1.39.73 2.07 1.33.28-1.31-.16-2.85-.25-3.3m-20.4-3.85c.38-1.08 2.07-1.47 2.5-3.05-8.13 7.2-15.32 2.38-20.03-3.17-.11 3.31 4.48 5 3.74 6.16 2.24 2.81 12.7 3.18 13.8.06m9.43-1.04c-2.22-4.56-2.3-6.68-2.7-9.86-.54 1.04-.9 1.88-1.69 3.39.57 1.71.29 3.49-.37 5.29.56.27 3.97 1.42 4.76 1.18m-27.74-1.8a5 5 0 0 1-.37-1.13c-1.73.13-5.19.7-7.23 2.53 1.27.24 4.12.7 7.6-1.4m5.62-3.68c-3.54-.63-6.36-7.94-3.72-9.6 2.7-1.7 6.01.53 6.73 4.53.71 4.02-.2 5.57-3.01 5.07m8.2-.27c-2.63-2.2.54-10.1 4.04-10.1 2.48 0 3.49 2.72 2.36 6.38-1.02 3.3-4.5 5.32-6.4 3.72m-1.29-24.14c-3.23 2.8-1.74 6.86-.4 9.35.5.92.84 1.8 1.21 1.69.37-.13.4-2.14-.15-3.16a11 11 0 0 1-.66-7.88"/><path fill="#cc4847" d="M45.15 85.2c-.88-.67 1.17-1.96-.5-1.5-1.51-.02-3.1.2-4.57-.24-1.8-.78-.51-2.28-.51-2.28s18.58-3.83 15.91-.24l3.5-.02c.64.68.96 1.38 1.78 1.8.37 1.6-1.95 1.94-3.13 2.01-1.23.03-1.74 1.77-3.26 1.5-3.34.41-6.37.4-9.22-1.03m-18.57-1.74c-1.37-1.2.69-3.02 1.75-1.88 1.77.7 6.45-.18 5.92 1.5 1.37.14 2.65.18 3.95.46 1.8.33.81 3.13-.75 2.67-6.07-.48-7.5-1.2-10.87-2.75m65.97-3.34c-1.01 1.26-3.16 3-4.68 3.52-4.75-.05 7.88-8.4 4.68-3.52M71.4 78.74c-1.93-.1-3.77-.8-5.71-.74 0 0 1.17-1.57 4.91-1.54 1.17-.08 1.43 1.47 2.58.66 2.85-.58 6.96-1.78 9.13-.36.95 1.14 1.59 3.65-.55 3.89-3.39.5-8.2.75-10.36-1.91m-54.1-1.25c-3.22 1.29-7.95-3.16-5.96-4.71 1.92-.5 11.5 1.5 11.5 1.5 2.1 1.46 7.43 1.1 5.27 3.61-1.56.53-3.4-.2-5 .46-.4.38-4.56.01-5.81-.86m62.72-5.56c-1.21-.03-2.73-2.03-.78-2.18.74-.9 1.35.37 2.28.44 3.14.95 3.36 2.8-1.5 1.74m-40.01.97c-1.94-.15.4-2.44 1.53-2.17 2.35-.68 4.84-.64 7.28-.52.89.72-8.81 2.7-8.81 2.7m-19.2-7.98c-1.45-1 .31-2.75-.57-3.81-1.2-2.8 4.12-4.92 5.71-4.5 1.39.22.68 1.88.62 2.26 4.13 1.16-5.44 4.28-5.77 6.05m40.4-7.28c-.93-1.2.34-1.11.96-.42 3.83 1.24 7.25.27 6.84 3.34.3 1.3-1.36 1.19-1.83 1.37.11-.25-3.93-1.81-5.98-4.3m2.84-4.05a5.6 5.6 0 0 1 .33-3.75c1.48-1.12 2.41 1.57 2.83 2.7.44 1.27 1.13 2.9.15 4.1zm.21-9.24c-1.08-.77.01-1.72-1.28-2.21-1.36-.77-.9-2.67.3-3.35-1.71-1.83-1.86-5.5 1.18-6.6.96-1.81 3.03-.36 2.64 1.33.35 2.56-.37 5.1-.41 7.65 0 2.52-2.43 3.18-2.43 3.18M35.46 28.04c.04-2.22.94-5.46 1.78-7.65 1.58-.5 1.69 1.7 1.99 2.55 3.18 1.4-1.73 7.22-3.77 5.1"/><path fill="#841b35" d="M34.47 84.57c1-.8 2.57-.68 3.55-1.18 1.6.12 1.59 2.7-.19 2.3-1.54.26-4.53.23-3.36-1.12m48.35-1.18c-1.4-.3-.86-1.72.43-1.77 3.75-.14 5.51-1.92 7.18-4.8.92-1.58 3.15-1.13 3.25.16.35 4.54-7.25 7.17-10.86 6.41m-35.21-.89c-4.38-.56-8.9-.02-8.04-1.32 4.97-1.71 10.85-2.26 15.88-2.26 1.01.8.06 2.22-.94 2.48-1.65.48-3.38.36-5.08.4-.47.45-1.16.94-1.82.7m12.77-6.3c-.74-.4-1.61-1.3-.15-1.02 2.43.13 5.34-.16 7.55.52 1.29.4 4.04-.28 3.92 1.07-.13 1.5-1.53.67-3.51 1.44a12.6 12.6 0 0 1-8.48-.08c-1.33-.5-.58-1.74.67-1.94m-38.05-1.3c-3.4-.75-6.96-1.53-10.2-1.38.07-.38 1.57-.77.2-.8-.3-.82 2.17-.3 2.39-1-.7-.6-.35-1.38.5-.8 1.12.58 2.4.96 3.56.3 1.35-.01 2.67.3 3.98.54 1.32-.25 2.68 1.4 1.29 2.31-.34.43-1.86 0-.8.5.75.6-.69.47-.92.34m60.81-1.14c-1-.49-1.96-1.25-2.9-1.85.69.26.95-1.16 1.88-1 1.27-.59 2.15.41 2.27 1.58.86.8-.44 1.79-1.25 1.27m-43.1-.9c-.8.06-1.19-.45-.21-.69 2.4-.63 4.88-1 7.32-1.49 2.46-.64.78-.41 4.4-.34 2.47 1.44-4.61 2.32-6.08 2.15-1.96 0-3.54.32-5.43.36M20.8 64.91c-2.1-1.89 4.37-5.03 6.29-5.32 1-.62.52 1.74-.29 1.8-4.86 2.27-4.87 5.02-6 3.52m44.1-2.04a6.7 6.7 0 0 1-2.76-2.43c-.94-.7-1.9-1.92-.87-2.85-.47-.52-.28-1.03.07-.2 1.72 2.03 4.43 2.74 6.56 4.21 1.27-.14-.2.4-.6.07-.65 1.1-.99 1.8-2.4 1.2m-.78-8.82c-.31-.94-.42-3.07.04-3.45.88 1.4 1.98 2.7 3.26 3.76.63.19.55 2.67-.77 2.73-1.37-.3-2.12-1.94-2.53-3.04m.46-9.04c-.37-.53-1.21-1.64-.33-1.2.89-1.48 1.23-3.24 2.27-4.62.67-.1-.13 1.65.2 2.21-.09 1.22.78 2.7-.17 3.7-.56.47-1.46.45-1.97-.09"/><path fill="#ef816c" d="M37.24 22.46c-.56.17-.58 2.9.37 1.9.38-.4.36-2.12-.37-1.9m27.9 10.58c-.85.27-2.99 2.05-1.73 2.56.63.26 2.3-2.75 1.73-2.56m-.88 6.8c-1.4.47-2.23 1.13-1.81 1.44.32.24 2.48-1.66 1.81-1.44M24.11 57.52c0-.93-3.19 2.28-2.37 1.88.77-.38 2.37-1.49 2.37-1.88m-8.72 17.06c-1.16.01-2.4.23-.66 1.05 1.19.57 2.3-1.07.66-1.05m3.93 1.52c.62.43 1.58.89 2.44 1.17 1.45.48 2.99.15 2.33-.88-.36-.55-1.84-.14-2.7-.25-.68-.08-2.48-.31-2.07-.04M75.78 78c-.32-.18-2.85.09-2.26.32.65.27 2.8-.02 2.26-.32m-47.29 4.63c.42.82 2.39 2.17 2.92 1.06.34-.7-3-1.22-2.92-1.06m25.1.75c-.55.1-1.15.53-.25.32.4-.09.56-.37.25-.32m-1.74.43c.06-.18-.81.1-1.7.4-.9.3-1.8.06-1.77.23.06.25.5.3.82.47.84.42 2.14.59 2.65-1.1"/></svg>