<svg xmlns="http://www.w3.org/2000/svg" width="600" height="37"><defs><path id="c" fill="#fff" d="M297.8 0a18.2 18.2 0 0 0 0 36.4zm-3 11.1c1.1 1.7 1 3.7.8 4-.3.3-3-.1-4.8-1.8S288.6 8 289.3 8c2 .2 4.5 1.6 5.5 3.2m.7 12.7c-.1.5-3.5 0-6-1.9-2.6-1.9-3.9-6.6-3-6.7 4.6-.6 9.7 3.7 9 8.6m-2 3.6c2.3 1.9 2.3 4.6 2 5s-3.2.1-5.4-1.5-2.9-5.6-2.2-5.7c2-.5 4.4 1.1 5.7 2.2M201.5.8h-2.8c-17.1 1.3-12.5 9.5-44.2 12.4h-2C137.9 11.8 137 6.4 137 6.4h-2.1c-1.4 4.4-10.1 6.2-16.4 6.9h-48L61 16.6l80.9.3c10.6.7 28.8 2.8 30.9 9.3h2.4s1.7-4.4 5.1-9.1l54.2.2c13.8 7.8 26.4 16.5 42.1 17l-.5-2.2s-17.3-10.7-4-17.5v-2C223.7 10 214.8 1 201.5.7m-1 4.5 1.7.1c9 1 17 4 24.5 7.6l-43 .1c4-4.3 9.6-8 16.8-7.8m43.3 11.6s10.8 0 13 1.6c3.7 2.5 4.7 7.4 4.7 7.4-9.2-2.8-17.7-9-17.7-9"/></defs><use href="#c"/><use x="-600" href="#c" transform="scale(-1 1)"/></svg>